<svg width="32" height="23" viewBox="0 0 32 23" fill="none" xmlns="http://www.w3.org/2000/svg">
<path d="M26.5283 1.9542C26.5194 1.93779 26.5048 1.92515 26.4871 1.91866C24.5227 1.03092 22.4499 0.397659 20.3203 0.0347008C20.3011 0.0312473 20.2814 0.0338012 20.2638 0.042002C20.2462 0.0502027 20.2317 0.0636358 20.2223 0.0804033C19.9399 0.585309 19.6834 1.10393 19.454 1.63429C17.1572 1.29094 14.821 1.29094 12.5242 1.63429C12.2938 1.10262 12.0339 0.583869 11.7456 0.0804033C11.7356 0.0641354 11.721 0.0511211 11.7036 0.0429913C11.6862 0.0348614 11.6667 0.0319774 11.6476 0.0347008C9.51428 0.396024 7.4378 1.02933 5.47051 1.91866C5.45326 1.92586 5.4388 1.93832 5.42926 1.9542C1.50026 7.7381 0.422623 13.3747 0.948553 18.9453C0.950042 18.9594 0.954479 18.9729 0.96158 18.9852C0.968682 18.9974 0.978293 19.0081 0.989802 19.0164C3.27844 20.6836 5.8379 21.956 8.55906 22.7793C8.57862 22.7852 8.59958 22.785 8.619 22.7786C8.63842 22.7723 8.65532 22.76 8.66734 22.7437C9.25119 21.9609 9.76856 21.1321 10.2142 20.2656C10.2201 20.2537 10.2235 20.2407 10.2241 20.2274C10.2247 20.2142 10.2225 20.2009 10.2177 20.1885C10.2128 20.1761 10.2054 20.1649 10.196 20.1554C10.1865 20.146 10.1751 20.1385 10.1626 20.1336C9.34513 19.8251 8.55375 19.4532 7.79595 19.0215C7.78256 19.0134 7.77133 19.0023 7.76322 18.9891C7.75511 18.9758 7.75034 18.9609 7.74933 18.9454C7.74832 18.93 7.75109 18.9146 7.75741 18.9004C7.76373 18.8863 7.77341 18.8738 7.78563 18.8641C7.94548 18.7473 8.10532 18.6254 8.25485 18.5036C8.26804 18.4922 8.28425 18.4847 8.30159 18.482C8.31893 18.4793 8.33669 18.4815 8.35281 18.4883C13.313 20.7176 18.6858 20.7176 23.5893 18.4883C23.6049 18.4808 23.6224 18.4777 23.6398 18.4795C23.6571 18.4813 23.6735 18.4879 23.6873 18.4985C23.8368 18.6204 23.9966 18.7473 24.1565 18.8641C24.1687 18.8738 24.1784 18.8863 24.1847 18.9004C24.191 18.9146 24.1938 18.93 24.1928 18.9454C24.1918 18.9609 24.187 18.9758 24.1789 18.9891C24.1708 19.0023 24.1596 19.0134 24.1462 19.0215C23.3903 19.4555 22.5986 19.8258 21.7795 20.1285C21.767 20.1335 21.7556 20.1409 21.7461 20.1503C21.7367 20.1598 21.7293 20.1711 21.7245 20.1835C21.7196 20.1959 21.7174 20.2091 21.718 20.2224C21.7186 20.2356 21.722 20.2486 21.7279 20.2606C22.1813 21.1227 22.6983 21.951 23.2748 22.7386C23.2868 22.755 23.3037 22.7672 23.3231 22.7736C23.3425 22.7799 23.3635 22.7802 23.383 22.7742C26.1121 21.9546 28.6789 20.682 30.9729 19.0114C30.9847 19.0032 30.9945 18.9926 31.0016 18.9803C31.0087 18.9681 31.013 18.9544 31.0142 18.9403C31.6432 12.5064 29.952 6.91545 26.5283 1.9542ZM10.9567 15.5532C9.46139 15.5532 8.23422 14.2024 8.23422 12.547C8.23422 10.8916 9.44076 9.53573 10.9567 9.53573C12.4881 9.53573 13.7049 10.8966 13.6791 12.5419C13.6791 14.2024 12.4726 15.5532 10.9567 15.5532ZM21.0318 15.5532C19.5365 15.5532 18.3094 14.2024 18.3094 12.547C18.3094 10.8916 19.5108 9.53573 21.0318 9.53573C22.5632 9.53573 23.7801 10.8966 23.7543 12.5419C23.7543 14.2024 22.5581 15.5532 21.0318 15.5532Z" fill="white"/>
</svg>
