<svg width="32" height="31" viewBox="0 0 32 31" fill="none" xmlns="http://www.w3.org/2000/svg">
<path d="M28.9788 0.441406H2.98319C1.79203 0.441406 0.824219 1.41209 0.824219 2.60369V28.2699C0.824219 29.4615 1.79203 30.4321 2.98319 30.4321H28.9788C30.17 30.4321 31.1445 29.4615 31.1445 28.2699V2.60369C31.1445 1.41209 30.17 0.441406 28.9788 0.441406ZM9.98799 26.1478H5.49409V11.8352H9.99476V26.1478H9.98799ZM7.74104 9.88046C6.29947 9.88046 5.13539 8.72233 5.13539 7.30313C5.13539 5.88392 6.29947 4.7258 7.74104 4.7258C9.17584 4.7258 10.3467 5.88392 10.3467 7.30313C10.3467 8.72903 9.18261 9.88046 7.74104 9.88046ZM26.8334 26.1478H22.3395V19.1856C22.3395 17.5254 22.3056 15.3899 20.0045 15.3899C17.6628 15.3899 17.3041 17.1974 17.3041 19.0651V26.1478H12.8102V11.8352H17.1214V13.79H17.1823C17.7846 12.6653 19.2533 11.4804 21.4393 11.4804C25.9874 11.4804 26.8334 14.446 26.8334 18.302V26.1478Z" fill="white"/>
</svg>
