<svg width="32" height="31" viewBox="0 0 32 31" fill="none" xmlns="http://www.w3.org/2000/svg">
<path d="M15.9878 7.75392C11.6858 7.75392 8.21575 11.2625 8.21575 15.6123C8.21575 19.9621 11.6858 23.4707 15.9878 23.4707C20.2898 23.4707 23.7598 19.9621 23.7598 15.6123C23.7598 11.2625 20.2898 7.75392 15.9878 7.75392ZM15.9878 20.7213C13.2077 20.7213 10.9349 18.4301 10.9349 15.6123C10.9349 12.7945 13.2009 10.5033 15.9878 10.5033C18.7746 10.5033 21.0406 12.7945 21.0406 15.6123C21.0406 18.4301 18.7678 20.7213 15.9878 20.7213ZM25.8905 7.43248C25.8905 8.45153 25.0788 9.26541 24.0777 9.26541C23.0698 9.26541 22.2649 8.44469 22.2649 7.43248C22.2649 6.42026 23.0766 5.59954 24.0777 5.59954C25.0788 5.59954 25.8905 6.42026 25.8905 7.43248ZM31.038 9.29277C30.923 6.83746 30.3683 4.66256 28.5894 2.87066C26.8172 1.07876 24.6662 0.517936 22.2378 0.394828C19.7351 0.251203 12.2337 0.251203 9.73092 0.394828C7.30935 0.511097 5.15835 1.07192 3.37938 2.86382C1.60041 4.65572 1.05251 6.83062 0.930754 9.28593C0.788707 11.8165 0.788707 19.4013 0.930754 21.9318C1.04574 24.3871 1.60041 26.562 3.37938 28.3539C5.15835 30.1458 7.30259 30.7066 9.73092 30.8298C12.2337 30.9734 19.7351 30.9734 22.2378 30.8298C24.6662 30.7135 26.8172 30.1527 28.5894 28.3539C30.3616 26.562 30.9162 24.3871 31.038 21.9318C31.18 19.4013 31.18 11.8233 31.038 9.29277ZM27.8047 24.647C27.2771 25.9875 26.2557 27.0203 24.9232 27.5606C22.9278 28.3608 18.1929 28.1761 15.9878 28.1761C13.7826 28.1761 9.04097 28.3539 7.05231 27.5606C5.72654 27.0271 4.70515 25.9944 4.17078 24.647C3.37938 22.6294 3.56201 17.8419 3.56201 15.6123C3.56201 13.3827 3.38614 8.58832 4.17078 6.57756C4.69839 5.23706 5.71977 4.20432 7.05231 3.66402C9.04774 2.86382 13.7826 3.04848 15.9878 3.04848C18.1929 3.04848 22.9345 2.87066 24.9232 3.66402C26.249 4.19748 27.2704 5.23022 27.8047 6.57756C28.5961 8.59516 28.4135 13.3827 28.4135 15.6123C28.4135 17.8419 28.5961 22.6363 27.8047 24.647Z" fill="white"/>
</svg>
