<svg width="32" height="31" viewBox="0 0 32 31" fill="none" xmlns="http://www.w3.org/2000/svg">
<path d="M6.36104 24.7526C6.42465 25.0822 6.22805 25.3944 5.89846 25.4638C5.58622 25.5274 5.2682 25.3308 5.2046 25.0012C5.14099 24.689 5.33759 24.3594 5.64983 24.29C5.96207 24.2206 6.29166 24.423 6.36104 24.7526ZM14.6354 28.8811C14.2712 29.1471 14.1729 29.6559 14.4215 30.0376C14.6875 30.4192 15.1963 30.5175 15.5779 30.2515C15.9422 29.9855 16.0405 29.4767 15.7745 29.0951C15.5317 28.7192 15.0171 28.6151 14.6354 28.8811ZM9.66271 2.14979C10.027 2.06884 10.2583 1.70456 10.1773 1.34027C10.1137 0.958646 9.74944 0.727356 9.38516 0.814089C9.02088 0.895041 8.78959 1.25932 8.85897 1.6236C8.93993 2.00523 9.29843 2.23652 9.66271 2.14979ZM2.62571 13.882C2.04749 13.483 1.25532 13.6333 0.856346 14.2289C0.457371 14.8071 0.607709 15.6166 1.18593 16.0156C1.76416 16.4262 2.55633 16.2816 2.9553 15.686C3.35428 15.0847 3.20394 14.2925 2.62571 13.882ZM18.3534 4.00011C18.9663 3.63583 19.1456 2.84366 18.7987 2.24809C18.4344 1.63517 17.6596 1.43857 17.064 1.80285C16.4684 2.16714 16.2718 2.9593 16.6361 3.57222C16.983 4.16779 17.7579 4.36439 18.3534 4.00011ZM7.30355 7.35381C7.74878 7.04157 7.84708 6.42865 7.55219 5.98342C7.25729 5.53819 6.64437 5.43989 6.21649 5.73478C5.77126 6.04702 5.67296 6.65994 5.96785 7.10518C6.26275 7.55619 6.86988 7.65449 7.30355 7.35381ZM28.8309 16.3741C28.403 16.4724 28.1196 16.9003 28.2179 17.3513C28.2989 17.7792 28.7326 18.0625 29.1604 17.9642C29.5883 17.8833 29.8717 17.4496 29.7734 17.0044C29.6866 16.5765 29.2587 16.2932 28.8309 16.3741ZM31.1264 13.0898C31.0628 12.7602 30.7448 12.5636 30.4325 12.6272C30.1029 12.6908 29.9064 13.0262 29.97 13.3558C30.0336 13.668 30.3516 13.882 30.6812 13.8184C30.9934 13.7316 31.2074 13.4194 31.1264 13.0898ZM26.4833 8.82828C25.986 9.17522 25.8703 9.85174 26.1999 10.349C26.5295 10.8463 27.206 10.9619 27.7033 10.6323C28.1832 10.2854 28.2989 9.60889 27.9693 9.11162C27.6397 8.60856 26.9632 8.48135 26.4833 8.82828ZM26.119 16.8887C27.6397 19.3809 26.9921 22.671 24.5982 24.3536C23.5921 25.0648 22.453 25.3771 21.3082 25.3424C20.6143 28.0658 17.2953 29.0777 15.231 27.2274C15.1674 27.2794 15.0807 27.3257 15.0171 27.3951C12.7562 28.9621 9.68005 28.4012 8.11307 26.1056C7.55219 25.2788 7.26886 24.3363 7.23995 23.3938C3.45836 22.7635 2.03592 17.9585 4.86344 15.316C3.22707 12.6041 4.89814 9.10583 7.95116 8.67216C9.40251 4.84432 14.1729 3.02869 17.4109 5.53819C21.3082 4.24874 25.2921 7.23817 24.9799 11.384C27.3564 12.1126 28.0329 15.2524 26.119 16.8887ZM22.0714 21.1849C21.8922 19.9938 19.7065 20.919 19.5793 19.618C19.4 17.7676 22.1061 13.7721 21.8922 12.2167C21.6956 10.8289 20.7704 10.534 19.9609 10.5167C19.1861 10.4994 18.9837 10.6323 18.7235 10.7827C18.5558 10.881 18.3419 11.066 18.047 10.7653C17.6827 10.4184 17.4051 10.0888 16.9252 10.0194C16.214 9.90378 15.9018 10.1351 15.3871 10.5803C15.1905 10.748 14.6933 11.3262 14.2307 11.1065C14.0341 11.0082 13.3402 10.6613 12.8429 10.4473C11.9004 10.0368 10.53 10.7133 10.0328 11.6038C9.28686 12.9279 7.83552 18.1435 7.62157 18.8374C7.1243 20.3754 8.25184 21.6475 9.75522 21.5608C10.3971 21.5261 10.8134 21.2948 11.2239 20.5547C11.4552 20.1268 13.6351 14.3272 13.8028 14.0439C13.9184 13.8473 14.3174 13.5813 14.647 13.749C14.9766 13.9282 15.046 14.2925 14.9939 14.6221C14.9303 15.183 13.3749 18.7217 13.3229 19.1149C13.1263 20.439 14.8783 20.653 15.5548 19.3462C15.7688 18.9357 18.1973 13.9918 18.4112 13.6622C18.6599 13.298 18.8391 13.1823 19.0878 13.1997C19.267 13.1997 19.5677 13.2517 19.4983 13.8299C19.4174 14.3735 17.4687 18.0105 17.249 18.901C16.983 20.0921 17.6306 21.2948 18.6888 21.8268C19.348 22.1564 22.3027 22.7346 22.0714 21.1849ZM22.401 26.522C21.8054 26.9498 21.6551 27.7941 22.0714 28.407C22.4819 29.0199 23.3088 29.1644 23.9217 28.7539C24.5346 28.326 24.6792 27.4818 24.2687 26.8689C23.8408 26.256 23.0139 26.0883 22.401 26.522Z" fill="white"/>
</svg>
